<?xml version="1.0" encoding="utf-8"?>
<!-- Generator: Adobe Illustrator 16.0.3, SVG Export Plug-In . SVG Version: 6.00 Build 0)  -->
<!DOCTYPE svg PUBLIC "-//W3C//DTD SVG 1.1//EN" "http://www.w3.org/Graphics/SVG/1.1/DTD/svg11.dtd">
<svg version="1.1" id="Ebene_1" xmlns="http://www.w3.org/2000/svg" xmlns:xlink="http://www.w3.org/1999/xlink" x="0px" y="0px"
	 width="300.468px" height="300.468px" viewBox="0 0 300.468 300.468" enable-background="new 0 0 300.468 300.468"
	 xml:space="preserve">
<g>
	<g>
		<path fill="#D3302F" d="M192.687,80.488c-1.331-0.995-3.675-0.553-5.201,0.938l-2.784,2.717c-0.946,0.924-2.765,2.162-3.973,2.704
			l-18.347,8.24c-1.152,0.518-3.277,0.972-4.563,0.972l-29.497-0.063c-2.25,0-4.12,1.83-4.17,4.08l-0.125,5.802
			c-0.023,1.08,0.373,2.092,1.114,2.85c0.741,0.757,1.74,1.174,2.815,1.174l30.67-1.422c1.378-0.064,3.296-0.252,4.138-0.475
			c0.892-0.234,2.638-1.167,3.829-1.927l18.486-11.782c0.816-0.52,2.473-1.603,2.896-1.978c0.56-0.497,2.146-2.735,2.215-2.829
			l2.677-3.774C194.193,83.847,194.115,81.552,192.687,80.488"/>
	</g>
	<g>
		<path fill="#B71E1E" d="M162.383,95.085c-1.153,0.516-3.278,0.971-4.563,0.971l-29.496-0.063c-2.251,0-4.121,1.83-4.169,4.08
			l-0.125,5.802c-0.023,1.08,0.373,2.092,1.115,2.85c0.74,0.757,1.739,1.174,2.814,1.174l30.671-1.422
			c1.377-0.064,3.296-0.253,4.138-0.475C163.658,107.768,162.383,95.085,162.383,95.085"/>
	</g>
	<g>
		<path fill="#2E72B8" d="M226.192,156.957c0.744-0.824,1.103-1.911,0.986-2.978c-0.117-1.068-0.703-2.05-1.609-2.696l-11.698-8.321
			c-0.698-0.498-1.522-0.761-2.381-0.761c-1.335,0-2.592,0.646-3.361,1.727l-24.374,34.256c-0.974,1.365-1.995,3.727-2.328,5.38
			l-0.153,0.782c-0.337,1.683-0.196,4.281,0.324,5.916l11.494,36.182c0.223,0.702-0.168,1.524-0.853,1.79l-10.316,4.049
			c-1.945,0.76-3.411,2.549-3.408,4.156c0.001,1.833,1.807,3.267,4.113,3.267h0.008l20.425-0.034
			c1.154-0.003,2.182-0.488,2.823-1.33c0.641-0.841,0.833-1.961,0.529-3.073l-1.227-4.479c-0.402-1.474-0.701-2.689-0.734-2.902
			c-0.034-0.281-0.257-1.726-0.494-3.211l-5.523-34.598c-0.165-1.04,0.325-2.697,1.029-3.48L226.192,156.957z"/>
	</g>
	<g>
		<path fill="#18499A" d="M224.225,151.228c-0.044-0.322-0.121-0.681-0.21-1.05l-10.145-7.217c-0.699-0.499-1.522-0.761-2.381-0.761
			c-1.335,0-2.593,0.646-3.361,1.727l-7.421,10.428c0.742,1.101,1.593,2.917,1.913,4.116l5.089,18.979l17.48-19.384L224.225,151.228
			z"/>
	</g>
	<g>
		<path fill="#2E72B8" d="M195.445,104.488c-0.246-1.068-0.913-1.962-1.88-2.521l-7.668-4.437c-0.611-0.354-1.3-0.542-1.993-0.542
			c-1.499,0-2.848,0.849-3.518,2.214l-13.446,27.387c-0.601,1.224-1.852,3.14-2.731,4.184l-12.984,15.396
			c-0.854,1.014-2.546,2.433-3.689,3.097l-9.297,5.398c-1.958,1.137-2.899,3.196-2.192,4.789c0.475,1.072,1.596,1.713,2.997,1.713
			c0.683,0,1.398-0.157,2.067-0.455l10.502-4.673c0.61-0.271,2.64-1.187,3.087-1.513c0.323-0.234,1.777-1.48,2.502-2.106
			l16.567-14.361c2.136-1.853,2.48-2.531,2.578-2.813c0.127-0.262,0.698-1.212,1.473-2.362l17.041-25.308
			C195.483,106.651,195.692,105.554,195.445,104.488"/>
	</g>
	<g>
		<path fill="#18499A" d="M193.566,101.968l-7.668-4.438c-0.612-0.353-1.3-0.541-1.992-0.541c-1.501,0-2.848,0.847-3.518,2.213
			l-7.913,16.118c0.189,0.165,0.361,0.337,0.487,0.513l8.445,11.722l13.455-19.979c0.621-0.924,0.829-2.022,0.582-3.088
			C195.199,103.42,194.532,102.524,193.566,101.968"/>
	</g>
	<g>
		<path fill="#D3302F" d="M102.076,151.416l-11.346-9.622c-0.688-0.583-1.488-0.891-2.315-0.891c-1.306,0-2.485,0.799-3.078,2.085
			l-19.058,41.395c-0.614,1.331-1.667,3.467-2.348,4.758l-17.961,34.102c-0.645,1.226-1.449,2.974-1.666,3.8
			c-0.162,0.613-0.61,2.279-0.999,3.702l-1.217,4.484c-0.303,1.114-0.108,2.234,0.535,3.075c0.643,0.841,1.672,1.321,2.825,1.321
			l20.426-0.001c1.001,0,1.962-0.281,2.707-0.793c0.896-0.614,1.41-1.521,1.409-2.479c-0.001-1.607-1.471-3.393-3.417-4.151
			l-9.709-3.786c-0.246-0.097-0.408-0.24-0.455-0.403c-0.048-0.163,0.011-0.37,0.167-0.583l21.62-29.606
			c0.896-1.227,2.265-3.281,3.05-4.577l21.788-35.959C104.166,155.409,103.747,152.832,102.076,151.416"/>
	</g>
	<g>
		<path fill="#428DCC" d="M162.498,79.924c3.611,5.959,11.37,7.864,17.331,4.254c5.962-3.612,7.866-11.372,4.254-17.333
			c-3.611-5.96-11.374-7.865-17.333-4.253C160.791,66.202,158.884,73.962,162.498,79.924"/>
	</g>
	<g>
		<path fill="#428DCC" d="M258.38,235.265l-1.216-4.484c-0.355-1.304-0.855-3.024-1.084-3.649c-0.25-0.684-1.114-2.31-1.802-3.491
			l-17.835-30.725c-0.646-1.113-1.369-3.204-1.549-4.478l-5.921-41.958c-0.233-1.658-1.095-4.077-1.963-5.509l-29.906-49.359
			c-0.743-1.229-2.105-1.992-3.554-1.992c-0.74,0-1.468,0.2-2.102,0.576l-2.721,1.612c-1.085,0.643-3.138,1.305-4.395,1.417
			l-28.767,2.534c-1.282,0.111-3.321-0.252-4.424-0.75l-18.281-8.253c-1.196-0.54-2.983-1.79-3.9-2.729l-3.326-3.404
			c-1.501-1.538-3.835-2.01-5.18-1.01c-1.42,1.057-1.516,3.354-0.215,5.229l3.117,4.495c0.167,0.241,1.648,2.365,2.198,2.856
			c0.421,0.376,2.075,1.463,2.89,1.984l18.467,11.815c1.221,0.782,2.928,1.696,3.821,1.934c0.841,0.225,2.761,0.415,4.141,0.481
			l19.66,0.952c1.049,0.051,2.561,0.873,3.176,1.724l27.609,38.317c0.771,1.07,1.71,3.049,2.052,4.323l10.889,40.609
			c0.506,1.889,0.78,2.905,1.318,3.346c0.293,0.415,0.751,0.998,1.46,1.889l22.398,28.163c0.152,0.193,0.222,0.386,0.186,0.519
			c-0.035,0.134-0.191,0.265-0.419,0.354l-9.305,3.628c-1.947,0.762-3.417,2.544-3.419,4.151c-0.002,1.834,1.805,3.271,4.117,3.275
			l20.427,0.002c1.152,0,2.182-0.483,2.823-1.322C258.488,237.496,258.683,236.375,258.38,235.265"/>
	</g>
	<g>
		<path fill="#E9453A" d="M151.013,79.924c-3.612,5.959-11.372,7.864-17.332,4.254c-5.96-3.612-7.866-11.372-4.255-17.333
			c3.612-5.96,11.373-7.865,17.333-4.253C152.719,66.202,154.625,73.962,151.013,79.924"/>
	</g>
	<g>
		<path fill="#2E72B8" d="M163.76,99.544c-0.127-2.238-1.586-3.991-3.385-3.991h-0.002c-1.66,0.039-3.244,1.678-3.688,3.815
			l-0.121,0.589c-0.271,1.306-1.07,3.377-1.743,4.522l-2.207,3.75c0.755,0.083,1.574,0.146,2.26,0.179l7.498,0.364l0.273-0.67
			c0.042-0.108,1.072-2.64,1.211-3.383c0.149-0.783-0.004-3.536-0.011-3.652L163.76,99.544z"/>
	</g>
	<g>
		<path fill="#B71E1E" d="M102.076,151.416l-11.346-9.622c-0.688-0.583-1.488-0.891-2.315-0.891c-1.306,0-2.485,0.799-3.078,2.085
			L80.28,153.97l0.054,2.126c0.045,1.834,1.007,4.245,2.236,5.611L93.205,173.5l9.826-16.217
			C104.166,155.409,103.747,152.83,102.076,151.416"/>
	</g>
	<g>
		<path fill="#E9453A" d="M168.595,96.316l-0.086-1.522c-0.128-2.238-1.586-3.99-3.385-3.99l0,0
			c-1.661,0.037-3.247,1.676-3.69,3.813l-0.12,0.589c-0.271,1.307-1.071,3.378-1.743,4.523l-7.944,13.498
			c-0.251,0.422-0.539,0.431-0.847,0.081l-8.271-9.398c-1.072-1.218-2.988-2.854-4.362-3.723l-16.027-10.141
			c-0.653-0.412-1.404-0.63-2.173-0.63c-1.434,0-2.734,0.733-3.477,1.962l-29.975,49.592c-0.902,1.493-1.574,4.026-1.531,5.77
			l0.116,4.607c0.046,1.835,1.008,4.245,2.237,5.608l26.731,29.642c0.705,0.783,1.196,2.442,1.033,3.481l-5.654,35.604
			c-0.221,1.396-0.725,3.733-1.1,5.104l-1.227,4.48c-0.305,1.111-0.112,2.232,0.529,3.072c0.641,0.843,1.669,1.326,2.824,1.33
			l20.433,0.033c2.305,0,4.112-1.435,4.114-3.267c0.001-1.607-1.465-3.396-3.409-4.156l-10.185-3.995
			c-0.675-0.265-1.078-1.105-0.86-1.798l11.377-36.229c0.513-1.637,0.652-4.232,0.315-5.914l-0.157-0.783
			c-0.329-1.647-1.35-4.011-2.325-5.38l-20.335-28.579c-0.505-0.709-0.495-1.992,0.021-2.694l21.539-29.312
			c0.402-0.549,1.276-0.699,1.841-0.305l13.834,9.64c1.146,0.798,2.873,1.294,4.509,1.294c0.527,0,1.02-0.055,1.463-0.16
			l1.874-0.444c1.899-0.451,3.889-2.157,4.624-3.965l8.266-20.306c0.045-0.108,1.075-2.639,1.214-3.383
			C168.755,99.187,168.602,96.433,168.595,96.316"/>
	</g>
</g>
</svg>
