<?xml version="1.0" encoding="utf-8"?>
<!-- Generator: Adobe Illustrator 16.0.3, SVG Export Plug-In . SVG Version: 6.00 Build 0)  -->
<!DOCTYPE svg PUBLIC "-//W3C//DTD SVG 1.1//EN" "http://www.w3.org/Graphics/SVG/1.1/DTD/svg11.dtd">
<svg version="1.1" id="Ebene_1" xmlns="http://www.w3.org/2000/svg" xmlns:xlink="http://www.w3.org/1999/xlink" x="0px" y="0px"
	 width="300.468px" height="300.468px" viewBox="0 0 300.468 300.468" enable-background="new 0 0 300.468 300.468"
	 xml:space="preserve">
<g>
	<g>
		<path fill="#D3302F" d="M201.604,65.838c-1.611-1.203-4.447-0.668-6.294,1.135l-3.369,3.288c-1.145,1.118-3.346,2.616-4.807,3.271
			l-22.2,9.971c-1.395,0.626-3.966,1.176-5.522,1.176l-35.692-0.077c-2.722,0-4.985,2.214-5.045,4.937l-0.151,7.021
			c-0.028,1.307,0.452,2.531,1.348,3.449c0.896,0.917,2.105,1.421,3.406,1.421l37.112-1.721c1.667-0.078,3.988-0.305,5.007-0.574
			c1.079-0.283,3.191-1.413,4.634-2.331l22.368-14.256c0.988-0.629,2.992-1.94,3.504-2.393c0.677-0.601,2.598-3.309,2.68-3.423
			l3.239-4.566C203.425,69.903,203.332,67.126,201.604,65.838"/>
	</g>
	<g>
		<path fill="#B71E1E" d="M164.935,83.502c-1.396,0.625-3.967,1.174-5.521,1.174l-35.692-0.076c-2.724,0-4.986,2.214-5.045,4.937
			l-0.152,7.021c-0.028,1.307,0.451,2.531,1.349,3.449c0.895,0.917,2.105,1.421,3.405,1.421l37.112-1.721
			c1.667-0.078,3.988-0.307,5.007-0.574C166.477,98.849,164.935,83.502,164.935,83.502"/>
	</g>
	<g>
		<path fill="#2E72B8" d="M242.145,158.369c0.901-0.998,1.335-2.313,1.194-3.604c-0.143-1.293-0.851-2.48-1.948-3.262
			l-14.155-10.069c-0.845-0.603-1.842-0.921-2.881-0.921c-1.614,0-3.136,0.782-4.066,2.09l-29.494,41.451
			c-1.178,1.652-2.414,4.51-2.816,6.51l-0.186,0.947c-0.408,2.035-0.237,5.18,0.393,7.158l13.908,43.781
			c0.27,0.85-0.203,1.844-1.032,2.166l-12.483,4.898c-2.354,0.92-4.127,3.084-4.124,5.029c0.001,2.219,2.187,3.953,4.978,3.953h0.01
			l24.714-0.041c1.397-0.004,2.641-0.592,3.417-1.609c0.774-1.018,1.008-2.373,0.64-3.719l-1.483-5.42
			c-0.487-1.783-0.849-3.254-0.889-3.512c-0.041-0.34-0.311-2.088-0.598-3.885l-6.684-41.865c-0.2-1.258,0.393-3.264,1.245-4.211
			L242.145,158.369z"/>
	</g>
	<g>
		<path fill="#18499A" d="M239.765,151.437c-0.053-0.391-0.146-0.824-0.254-1.271l-12.275-8.733
			c-0.846-0.603-1.842-0.921-2.881-0.921c-1.615,0-3.137,0.782-4.067,2.09l-8.979,12.618c0.897,1.332,1.927,3.529,2.314,4.98
			l6.157,22.967l21.152-23.455L239.765,151.437z"/>
	</g>
	<g>
		<path fill="#2E72B8" d="M204.941,94.879c-0.298-1.292-1.105-2.374-2.275-3.051l-9.278-5.369c-0.739-0.428-1.572-0.655-2.411-0.655
			c-1.814,0-3.446,1.027-4.257,2.68l-16.271,33.139c-0.727,1.481-2.24,3.8-3.306,5.063l-15.711,18.629
			c-1.034,1.227-3.081,2.944-4.464,3.748l-11.25,6.532c-2.369,1.375-3.508,3.867-2.653,5.795c0.575,1.297,1.931,2.072,3.626,2.072
			c0.826,0,1.691-0.189,2.501-0.551l12.708-5.654c0.739-0.328,3.194-1.436,3.735-1.83c0.392-0.283,2.151-1.791,3.028-2.549
			l20.047-17.378c2.584-2.241,3.001-3.062,3.119-3.404c0.154-0.317,0.845-1.466,1.782-2.857l20.62-30.624
			C204.987,97.498,205.24,96.17,204.941,94.879"/>
	</g>
	<g>
		<path fill="#18499A" d="M202.667,91.83l-9.278-5.371c-0.741-0.427-1.573-0.654-2.411-0.654c-1.816,0-3.445,1.025-4.256,2.678
			l-9.575,19.503c0.229,0.2,0.437,0.408,0.589,0.621l10.22,14.184l16.28-24.174c0.752-1.118,1.004-2.447,0.705-3.737
			C204.643,93.587,203.835,92.504,202.667,91.83"/>
	</g>
	<g>
		<path fill="#D3302F" d="M91.961,151.664l-13.729-11.643c-0.832-0.706-1.8-1.078-2.802-1.078c-1.58,0-3.007,0.966-3.724,2.523
			l-23.061,50.088c-0.743,1.611-2.018,4.195-2.841,5.758L24.07,238.576c-0.781,1.482-1.754,3.598-2.016,4.598
			c-0.195,0.742-0.739,2.758-1.208,4.48l-1.473,5.426c-0.366,1.348-0.13,2.703,0.647,3.721c0.777,1.018,2.023,1.6,3.419,1.6
			l24.716-0.002c1.211,0,2.374-0.34,3.275-0.959c1.083-0.744,1.706-1.84,1.705-3c-0.002-1.945-1.78-4.105-4.135-5.023l-11.749-4.582
			c-0.298-0.117-0.493-0.291-0.55-0.488c-0.058-0.197,0.013-0.447,0.201-0.705l26.161-35.824c1.084-1.484,2.741-3.971,3.69-5.539
			l26.364-43.512C94.49,156.496,93.982,153.376,91.961,151.664"/>
	</g>
	<g>
		<path fill="#428DCC" d="M165.073,65.156c4.37,7.211,13.759,9.516,20.972,5.147c7.214-4.371,9.519-13.76,5.147-20.974
			c-4.37-7.212-13.763-9.517-20.974-5.147C163.007,48.553,160.702,57.942,165.073,65.156"/>
	</g>
	<g>
		<path fill="#428DCC" d="M281.095,253.125l-1.472-5.426c-0.43-1.578-1.035-3.66-1.312-4.416c-0.303-0.828-1.349-2.795-2.18-4.225
			l-21.581-37.178c-0.781-1.348-1.657-3.877-1.875-5.418l-7.164-50.771c-0.282-2.006-1.325-4.933-2.375-6.666L206.95,79.299
			c-0.899-1.487-2.548-2.411-4.301-2.411c-0.896,0-1.775,0.242-2.542,0.697l-3.293,1.951c-1.313,0.778-3.796,1.579-5.317,1.714
			l-34.809,3.066c-1.552,0.135-4.019-0.305-5.353-0.907l-22.121-9.987c-1.447-0.652-3.61-2.166-4.72-3.303L120.47,66
			c-1.817-1.86-4.642-2.433-6.268-1.222c-1.718,1.279-1.833,4.059-0.26,6.327l3.771,5.439c0.203,0.292,1.995,2.862,2.66,3.456
			c0.51,0.456,2.51,1.77,3.497,2.401l22.345,14.297c1.478,0.946,3.543,2.053,4.625,2.34c1.017,0.271,3.34,0.502,5.01,0.583
			l23.789,1.152c1.27,0.062,3.099,1.056,3.844,2.086l33.407,46.365c0.934,1.294,2.069,3.689,2.483,5.23l13.176,49.139
			c0.612,2.285,0.943,3.516,1.595,4.049c0.354,0.502,0.909,1.207,1.767,2.285l27.104,34.078c0.184,0.234,0.268,0.467,0.225,0.627
			c-0.043,0.162-0.232,0.32-0.508,0.428l-11.259,4.391c-2.356,0.922-4.135,3.078-4.137,5.023c-0.002,2.219,2.184,3.957,4.981,3.963
			l24.718,0.002c1.394,0,2.64-0.584,3.416-1.6C281.225,255.824,281.46,254.468,281.095,253.125"/>
	</g>
	<g>
		<path fill="#E9453A" d="M151.177,65.156c-4.371,7.211-13.76,9.516-20.972,5.147c-7.212-4.371-9.518-13.76-5.148-20.974
			c4.37-7.212,13.761-9.517,20.973-5.147C153.242,48.553,155.546,57.942,151.177,65.156"/>
	</g>
	<g>
		<path fill="#2E72B8" d="M166.601,88.897c-0.153-2.708-1.919-4.829-4.096-4.829h-0.002c-2.009,0.047-3.926,2.03-4.462,4.616
			l-0.146,0.712c-0.328,1.58-1.295,4.087-2.109,5.472l-2.671,4.537c0.913,0.1,1.905,0.177,2.734,0.217l9.073,0.441l0.33-0.812
			c0.052-0.13,1.298-3.194,1.466-4.093c0.181-0.947-0.005-4.279-0.013-4.419L166.601,88.897z"/>
	</g>
	<g>
		<path fill="#B71E1E" d="M91.961,151.664l-13.729-11.643c-0.832-0.705-1.8-1.078-2.802-1.078c-1.58,0-3.007,0.966-3.724,2.523
			l-6.119,13.29l0.065,2.572c0.055,2.219,1.218,5.137,2.707,6.789l12.869,14.27l11.89-19.623
			C94.49,156.496,93.982,153.375,91.961,151.664"/>
	</g>
	<g>
		<path fill="#E9453A" d="M172.452,84.992l-0.104-1.841c-0.155-2.708-1.92-4.829-4.096-4.829h-0.001
			c-2.01,0.045-3.929,2.028-4.465,4.615l-0.146,0.713c-0.327,1.581-1.296,4.088-2.109,5.474l-9.613,16.333
			c-0.303,0.51-0.651,0.522-1.024,0.097l-10.007-11.372c-1.297-1.474-3.615-3.453-5.278-4.505l-19.393-12.271
			c-0.79-0.499-1.699-0.763-2.629-0.763c-1.735,0-3.308,0.887-4.207,2.375l-36.271,60.009c-1.091,1.806-1.905,4.872-1.852,6.981
			l0.14,5.575c0.056,2.221,1.22,5.137,2.707,6.787l32.345,35.867c0.854,0.947,1.448,2.955,1.25,4.213l-6.842,43.082
			c-0.268,1.689-0.877,4.518-1.331,6.176l-1.485,5.422c-0.368,1.344-0.136,2.701,0.64,3.717c0.776,1.02,2.02,1.605,3.417,1.609
			l24.725,0.041c2.789,0,4.975-1.736,4.978-3.953c0.002-1.945-1.772-4.109-4.125-5.029l-12.324-4.834
			c-0.817-0.32-1.304-1.338-1.041-2.176l13.767-43.838c0.621-1.98,0.789-5.121,0.381-7.156l-0.189-0.947
			c-0.397-1.994-1.633-4.854-2.813-6.51l-24.607-34.582c-0.611-0.858-0.599-2.411,0.025-3.259l26.063-35.469
			c0.487-0.664,1.544-0.846,2.228-0.369l16.74,11.664c1.386,0.966,3.476,1.566,5.456,1.566c0.639,0,1.234-0.066,1.771-0.193
			l2.268-0.538c2.298-0.546,4.705-2.609,5.596-4.798l10.001-24.571c0.055-0.131,1.301-3.193,1.469-4.093
			C172.645,88.465,172.459,85.132,172.452,84.992"/>
	</g>
</g>
</svg>
